<svg width="103" height="50" viewBox="0 0 103 50" fill="none" xmlns="http://www.w3.org/2000/svg">
<rect x="7.45875" y="7.67213" width="39.0458" height="16.7462" transform="rotate(-9 7.45875 7.67213)" fill="#CFFFC3"/>
<rect x="7.45875" y="7.67213" width="39.0458" height="16.7462" transform="rotate(-9 7.45875 7.67213)" stroke="black"/>
<path d="M18.5508 13.3457C18.454 13.2334 18.3294 13.156 18.1768 13.1133C18.0233 13.0647 17.8458 13.0564 17.6444 13.0883C17.2651 13.1484 16.9915 13.3193 16.8235 13.601C16.6545 13.8768 16.6039 14.2281 16.6714 14.6548C16.7493 15.1466 16.9231 15.4958 17.1927 15.7021C17.4623 15.9085 17.8371 15.9737 18.3171 15.8976C18.7734 15.8254 19.1118 15.5835 19.3321 15.1719L17.7587 15.4211L17.5377 14.0255L20.7467 13.5173L21.0592 15.4907C20.8608 16.002 20.5483 16.4646 20.1218 16.8784C19.6943 17.2863 19.1132 17.5484 18.3783 17.6648C17.7264 17.7681 17.1364 17.7248 16.6082 17.5351C16.085 17.3385 15.6546 17.0179 15.3169 16.5733C14.9851 16.1277 14.7699 15.5938 14.6714 14.9716C14.5728 14.3493 14.6125 13.775 14.7903 13.2487C14.9741 12.7215 15.2849 12.2865 15.7227 11.9438C16.1595 11.5952 16.7009 11.3697 17.3468 11.2674C18.1706 11.1369 18.8717 11.2294 19.4501 11.5448C20.0345 11.8593 20.4281 12.3497 20.6308 13.0162L18.5508 13.3457Z" fill="black"/>
<path d="M25.1098 16.6169C24.5172 16.7107 23.95 16.6578 23.4081 16.4581C22.8721 16.2575 22.4199 15.9343 22.0517 15.4884C21.6834 15.0425 21.4504 14.5114 21.3528 13.8951C21.2552 13.2788 21.3126 12.7017 21.5251 12.1638C21.7376 11.626 22.0682 11.1818 22.5168 10.8313C22.9705 10.4739 23.4937 10.2483 24.0863 10.1544C24.6789 10.0606 25.2432 10.1139 25.7792 10.3146C26.3142 10.5093 26.7629 10.83 27.1253 11.2768C27.4936 11.7227 27.7265 12.2538 27.8241 12.8701C27.9218 13.4865 27.8643 14.0635 27.6518 14.6014C27.4453 15.1383 27.1152 15.5855 26.6615 15.9428C26.2137 16.2993 25.6965 16.524 25.1098 16.6169ZM24.8184 14.7768C25.2095 14.7149 25.492 14.5425 25.666 14.2599C25.8389 13.9712 25.8916 13.6136 25.8241 13.1869C25.7556 12.7543 25.5949 12.4305 25.3421 12.2153C25.0884 11.9943 24.766 11.9148 24.3749 11.9767C23.9779 12.0396 23.6928 12.2154 23.5199 12.504C23.3459 12.7867 23.2932 13.1443 23.3618 13.5769C23.4293 14.0036 23.59 14.3274 23.8437 14.5485C24.0964 14.7636 24.4214 14.8397 24.8184 14.7768Z" fill="black"/>
<path d="M32.1153 15.5073C31.5227 15.6012 30.9554 15.5483 30.4135 15.3486C29.8775 15.148 29.4254 14.8247 29.0571 14.3788C28.6888 13.933 28.4559 13.4019 28.3583 12.7855C28.2606 12.1692 28.3181 11.5921 28.5305 11.0543C28.743 10.5164 29.0736 10.0722 29.5223 9.72172C29.976 9.36435 30.4991 9.13874 31.0917 9.04487C31.6844 8.95101 32.2486 9.0044 32.7846 9.20502C33.3197 9.39972 33.7684 9.72047 34.1307 10.1673C34.499 10.6132 34.732 11.1443 34.8296 11.7606C34.9272 12.3769 34.8698 12.954 34.6573 13.4918C34.4507 14.0288 34.1206 14.4759 33.667 14.8333C33.2192 15.1897 32.702 15.4144 32.1153 15.5073ZM31.8239 13.6673C32.215 13.6053 32.4975 13.433 32.6714 13.1503C32.8444 12.8617 32.8971 12.504 32.8295 12.0774C32.761 11.6448 32.6004 11.3209 32.3476 11.1058C32.0939 10.8848 31.7715 10.8052 31.3804 10.8672C30.9833 10.93 30.6983 11.1058 30.5253 11.3944C30.3514 11.6771 30.2987 12.0347 30.3672 12.4674C30.4348 12.894 30.5954 13.2179 30.8491 13.4389C31.1019 13.654 31.4268 13.7301 31.8239 13.6673Z" fill="black"/>
<path d="M37.6696 8.11239C38.3274 8.0082 38.9234 8.05049 39.4575 8.23927C39.9975 8.4271 40.4384 8.73694 40.7802 9.16879C41.1219 9.60065 41.3407 10.1188 41.4364 10.7233C41.5312 11.3218 41.4833 11.8822 41.2927 12.4045C41.102 12.9267 40.7798 13.3665 40.3262 13.7239C39.8775 14.0744 39.3242 14.3018 38.6664 14.4059L36.0441 14.8213L35.0473 8.52772L37.6696 8.11239ZM38.2099 12.674C38.6543 12.6036 38.9877 12.4263 39.21 12.142C39.4322 11.8578 39.5077 11.4904 39.4364 11.0401C39.365 10.5897 39.1797 10.2636 38.8805 10.062C38.5813 9.86029 38.2094 9.79465 37.765 9.86505L37.2938 9.93967L37.7387 12.7487L38.2099 12.674Z" fill="black"/>
<rect x="68.8308" y="3.14222" width="31.5346" height="14.7402" transform="rotate(9 68.8308 3.14222)" fill="#FF8585"/>
<rect x="68.8308" y="3.14222" width="31.5346" height="14.7402" transform="rotate(9 68.8308 3.14222)" stroke="black"/>
<path d="M78.2784 12.2149C78.6436 12.3638 78.9078 12.594 79.0711 12.9054C79.2413 13.2118 79.2977 13.5457 79.2405 13.9072C79.1532 14.4583 78.9019 14.8559 78.4866 15.1C78.0782 15.339 77.5332 15.4046 76.8517 15.2966L73.5538 14.7743L74.5506 8.48074L77.7596 8.989C78.3997 9.09037 78.8813 9.30941 79.2046 9.64614C79.5279 9.98286 79.6473 10.4179 79.5629 10.9512C79.5047 11.3187 79.3576 11.6143 79.1217 11.8382C78.8926 12.057 78.6115 12.1826 78.2784 12.2149ZM76.1355 11.2467L76.8999 11.3678C77.0777 11.396 77.2137 11.381 77.3079 11.3231C77.4081 11.266 77.4699 11.1634 77.4934 11.0153C77.5178 10.8612 77.4912 10.7416 77.4135 10.6564C77.3428 10.5662 77.2185 10.507 77.0407 10.4789L76.2762 10.3578L76.1355 11.2467ZM76.6757 13.6468C76.8534 13.6749 76.989 13.663 77.0823 13.6109C77.1824 13.5539 77.2447 13.4483 77.2691 13.2943C77.317 12.992 77.1661 12.8132 76.8164 12.7579L75.9186 12.6157L75.7778 13.5046L76.6757 13.6468Z" fill="black"/>
<path d="M83.8168 15.4248L81.7189 15.0925L81.2572 15.9944L79.186 15.6663L82.4851 9.73744L84.7607 10.0979L86.0573 16.7547L83.9772 16.4252L83.8168 15.4248ZM83.5719 13.8643L83.2803 12.023L82.4341 13.684L83.5719 13.8643Z" fill="black"/>
<path d="M90.1248 10.9474C90.7826 11.0516 91.3363 11.276 91.7859 11.6206C92.2415 11.9661 92.5651 12.397 92.7566 12.9134C92.9482 13.4297 92.9962 13.9901 92.9004 14.5946C92.8056 15.1931 92.5869 15.7113 92.2442 16.149C91.9015 16.5868 91.4592 16.9055 90.9172 17.1052C90.3822 17.2999 89.7858 17.3452 89.128 17.241L86.5057 16.8257L87.5025 10.5321L90.1248 10.9474ZM89.229 15.4528C89.6734 15.5232 90.0453 15.4575 90.3445 15.2559C90.6437 15.0542 90.829 14.7282 90.9004 14.2778C90.9717 13.8274 90.8962 13.4601 90.674 13.1758C90.4517 12.8915 90.1183 12.7142 89.6739 12.6438L89.2027 12.5692L88.7578 15.3782L89.229 15.4528Z" fill="black"/>
<path d="M57.0674 12.9546C57.0674 13.3387 56.9599 13.7114 56.7451 14.0727C56.5335 14.4308 56.2161 14.7173 55.7929 14.9321C55.373 15.1437 54.9336 15.2495 54.4746 15.2495C54.0188 15.2495 53.5827 15.1453 53.166 14.937C52.7493 14.7254 52.4319 14.4389 52.2138 14.0776C51.9957 13.7163 51.8867 13.3387 51.8867 12.9448C51.8867 12.5444 51.9974 12.1522 52.2187 11.768C52.4401 11.3807 52.7575 11.0763 53.1709 10.8549C53.5875 10.6336 54.0221 10.5229 54.4746 10.5229C54.9303 10.5229 55.3681 10.6369 55.7881 10.8647C56.2112 11.0893 56.5302 11.3937 56.7451 11.7778C56.9599 12.1587 57.0674 12.5509 57.0674 12.9546ZM56.0664 12.9594C56.0664 12.6372 55.9508 12.341 55.7197 12.0708C55.4039 11.7062 54.9889 11.5239 54.4746 11.5239C54.0221 11.5239 53.6445 11.6688 53.3418 11.9585C53.039 12.2482 52.8877 12.5835 52.8877 12.9643C52.8877 13.2768 53.0407 13.5698 53.3466 13.8432C53.6526 14.1134 54.0286 14.2485 54.4746 14.2485C54.9238 14.2485 55.3014 14.1134 55.6074 13.8432C55.9134 13.5698 56.0664 13.2752 56.0664 12.9594Z" fill="black"/>
<path d="M60.2656 10.6548V11.2798C60.6855 10.977 61.0159 10.7752 61.2568 10.6743C61.5009 10.5734 61.7288 10.5229 61.9404 10.5229C62.2659 10.5229 62.5817 10.6434 62.8877 10.8842C63.096 11.047 63.2002 11.213 63.2002 11.3823C63.2002 11.5255 63.1497 11.6476 63.0488 11.7485C62.9511 11.8462 62.8323 11.895 62.6924 11.895C62.5687 11.895 62.4384 11.8331 62.3017 11.7094C62.165 11.5857 62.0429 11.5239 61.9355 11.5239C61.7955 11.5239 61.5856 11.6118 61.3056 11.7876C61.0289 11.9633 60.6823 12.227 60.2656 12.5786V14.0874H61.6914C61.9323 14.0874 62.1032 14.1346 62.2041 14.229C62.3082 14.3201 62.3603 14.4406 62.3603 14.5903C62.3603 14.7368 62.3082 14.8572 62.2041 14.9516C62.1032 15.0428 61.9323 15.0883 61.6914 15.0883H58.6689C58.428 15.0883 58.2555 15.0428 58.1513 14.9516C58.0504 14.8572 58 14.7352 58 14.5854C58 14.4389 58.0504 14.3201 58.1513 14.229C58.2555 14.1346 58.428 14.0874 58.6689 14.0874H59.2646V11.6557H58.9033C58.6624 11.6557 58.4899 11.6102 58.3857 11.519C58.2848 11.4246 58.2343 11.3025 58.2343 11.1528C58.2343 11.0063 58.2848 10.8875 58.3857 10.7964C58.4899 10.702 58.6624 10.6548 58.9033 10.6548H60.2656Z" fill="black"/>
<rect x="10.2408" y="25.406" width="89" height="23.32" stroke="black"/>
<path fill-rule="evenodd" clip-rule="evenodd" d="M18.0219 34.7079L22.5949 37.909L27.1679 34.7079C27.083 34.5311 26.9017 34.4075 26.6943 34.4075H18.4956C18.2882 34.4075 18.1068 34.5311 18.0219 34.7079ZM27.2191 35.8927L22.8817 38.9289C22.7095 39.0494 22.4804 39.0494 22.3082 38.9289L17.9708 35.8927V41.0814C17.9708 41.3689 18.2081 41.6062 18.4956 41.6062H26.6943C26.9818 41.6062 27.2191 41.3689 27.2191 41.0814V35.8927ZM16.9708 34.9324C16.9708 34.0926 17.6558 33.4075 18.4956 33.4075H26.6943C27.5341 33.4075 28.2191 34.0926 28.2191 34.9324V41.0814C28.2191 41.9212 27.5341 42.6062 26.6943 42.6062H18.4956C17.6558 42.6062 16.9708 41.9212 16.9708 41.0814V34.9324Z" fill="#1E1E1E"/>
<path d="M46.7631 31.5342V42.6062H45.3071V34.3502L41.6271 42.6062H40.6031L36.9071 34.3342V42.6062H35.4511V31.5342H37.0191L41.1151 40.6862L45.2111 31.5342H46.7631Z" fill="black"/>
<path d="M48.6884 38.1902C48.6884 37.2942 48.8697 36.5102 49.2324 35.8382C49.595 35.1556 50.091 34.6276 50.7204 34.2542C51.3604 33.8809 52.0697 33.6942 52.8484 33.6942C53.6164 33.6942 54.283 33.8596 54.8484 34.1902C55.4137 34.5209 55.835 34.9369 56.1124 35.4382V33.8382H57.5844V42.6062H56.1124V40.9742C55.8244 41.4862 55.3924 41.9129 54.8164 42.2542C54.251 42.5849 53.5897 42.7502 52.8324 42.7502C52.0537 42.7502 51.3497 42.5582 50.7204 42.1742C50.091 41.7902 49.595 41.2516 49.2324 40.5582C48.8697 39.8649 48.6884 39.0756 48.6884 38.1902ZM56.1124 38.2062C56.1124 37.5449 55.979 36.9689 55.7124 36.4782C55.4457 35.9876 55.083 35.6142 54.6244 35.3582C54.1764 35.0916 53.6804 34.9582 53.1364 34.9582C52.5924 34.9582 52.0964 35.0862 51.6484 35.3422C51.2004 35.5982 50.843 35.9716 50.5764 36.4622C50.3097 36.9529 50.1764 37.5289 50.1764 38.1902C50.1764 38.8622 50.3097 39.4489 50.5764 39.9502C50.843 40.4409 51.2004 40.8196 51.6484 41.0862C52.0964 41.3422 52.5924 41.4702 53.1364 41.4702C53.6804 41.4702 54.1764 41.3422 54.6244 41.0862C55.083 40.8196 55.4457 40.4409 55.7124 39.9502C55.979 39.4489 56.1124 38.8676 56.1124 38.2062Z" fill="black"/>
<path d="M60.7969 32.4142C60.5195 32.4142 60.2849 32.3182 60.0929 32.1262C59.9009 31.9342 59.8049 31.6996 59.8049 31.4222C59.8049 31.1449 59.9009 30.9102 60.0929 30.7182C60.2849 30.5262 60.5195 30.4302 60.7969 30.4302C61.0635 30.4302 61.2875 30.5262 61.4689 30.7182C61.6609 30.9102 61.7569 31.1449 61.7569 31.4222C61.7569 31.6996 61.6609 31.9342 61.4689 32.1262C61.2875 32.3182 61.0635 32.4142 60.7969 32.4142ZM61.5009 33.8382V42.6062H60.0449V33.8382H61.5009Z" fill="black"/>
<path d="M65.4384 30.7662V42.6062H63.9824V30.7662H65.4384Z" fill="black"/>
<path d="M67.7479 42.6662C67.5745 42.6662 67.4279 42.6062 67.3079 42.4862C67.1879 42.3662 67.1279 42.2196 67.1279 42.0462C67.1279 41.8729 67.1879 41.7262 67.3079 41.6062C67.4279 41.4862 67.5745 41.4262 67.7479 41.4262C67.9145 41.4262 68.0545 41.4862 68.1679 41.6062C68.2879 41.7262 68.3479 41.8729 68.3479 42.0462C68.3479 42.2196 68.2879 42.3662 68.1679 42.4862C68.0545 42.6062 67.9145 42.6662 67.7479 42.6662Z" fill="black"/>
<path d="M69.2175 39.8562C69.2175 39.2896 69.3308 38.7962 69.5575 38.3762C69.7841 37.9496 70.0975 37.6196 70.4975 37.3862C70.9041 37.1529 71.3675 37.0362 71.8875 37.0362C72.5608 37.0362 73.1141 37.1996 73.5475 37.5262C73.9875 37.8529 74.2775 38.3062 74.4175 38.8862H73.4375C73.3441 38.5529 73.1608 38.2896 72.8875 38.0962C72.6208 37.9029 72.2875 37.8062 71.8875 37.8062C71.3675 37.8062 70.9475 37.9862 70.6275 38.3462C70.3075 38.6996 70.1475 39.2029 70.1475 39.8562C70.1475 40.5162 70.3075 41.0262 70.6275 41.3862C70.9475 41.7462 71.3675 41.9262 71.8875 41.9262C72.2875 41.9262 72.6208 41.8329 72.8875 41.6462C73.1541 41.4596 73.3375 41.1929 73.4375 40.8462H74.4175C74.2708 41.4062 73.9775 41.8562 73.5375 42.1962C73.0975 42.5296 72.5475 42.6962 71.8875 42.6962C71.3675 42.6962 70.9041 42.5796 70.4975 42.3462C70.0975 42.1129 69.7841 41.7829 69.5575 41.3562C69.3308 40.9296 69.2175 40.4296 69.2175 39.8562Z" fill="black"/>
<path d="M78.0217 42.6962C77.5084 42.6962 77.0417 42.5796 76.6217 42.3462C76.2084 42.1129 75.8817 41.7829 75.6417 41.3562C75.4084 40.9229 75.2917 40.4229 75.2917 39.8562C75.2917 39.2962 75.4117 38.8029 75.6517 38.3762C75.8984 37.9429 76.2317 37.6129 76.6517 37.3862C77.0717 37.1529 77.5417 37.0362 78.0617 37.0362C78.5817 37.0362 79.0517 37.1529 79.4717 37.3862C79.8917 37.6129 80.2217 37.9396 80.4617 38.3662C80.7084 38.7929 80.8317 39.2896 80.8317 39.8562C80.8317 40.4229 80.705 40.9229 80.4517 41.3562C80.205 41.7829 79.8684 42.1129 79.4417 42.3462C79.015 42.5796 78.5417 42.6962 78.0217 42.6962ZM78.0217 41.8962C78.3484 41.8962 78.655 41.8196 78.9417 41.6662C79.2284 41.5129 79.4584 41.2829 79.6317 40.9762C79.8117 40.6696 79.9017 40.2962 79.9017 39.8562C79.9017 39.4162 79.815 39.0429 79.6417 38.7362C79.4684 38.4296 79.2417 38.2029 78.9617 38.0562C78.6817 37.9029 78.3784 37.8262 78.0517 37.8262C77.7184 37.8262 77.4117 37.9029 77.1317 38.0562C76.8584 38.2029 76.6384 38.4296 76.4717 38.7362C76.305 39.0429 76.2217 39.4162 76.2217 39.8562C76.2217 40.3029 76.3017 40.6796 76.4617 40.9862C76.6284 41.2929 76.8484 41.5229 77.1217 41.6762C77.395 41.8229 77.695 41.8962 78.0217 41.8962Z" fill="black"/>
<path d="M88.6182 37.0262C89.0448 37.0262 89.4248 37.1162 89.7582 37.2962C90.0915 37.4696 90.3548 37.7329 90.5482 38.0862C90.7415 38.4396 90.8382 38.8696 90.8382 39.3762V42.6062H89.9382V39.5062C89.9382 38.9596 89.8015 38.5429 89.5282 38.2562C89.2615 37.9629 88.8982 37.8162 88.4382 37.8162C87.9648 37.8162 87.5882 37.9696 87.3082 38.2762C87.0282 38.5762 86.8882 39.0129 86.8882 39.5862V42.6062H85.9882V39.5062C85.9882 38.9596 85.8515 38.5429 85.5782 38.2562C85.3115 37.9629 84.9482 37.8162 84.4882 37.8162C84.0148 37.8162 83.6382 37.9696 83.3582 38.2762C83.0782 38.5762 82.9382 39.0129 82.9382 39.5862V42.6062H82.0282V37.1262H82.9382V37.9162C83.1182 37.6296 83.3582 37.4096 83.6582 37.2562C83.9648 37.1029 84.3015 37.0262 84.6682 37.0262C85.1282 37.0262 85.5348 37.1296 85.8882 37.3362C86.2415 37.5429 86.5048 37.8462 86.6782 38.2462C86.8315 37.8596 87.0848 37.5596 87.4382 37.3462C87.7915 37.1329 88.1848 37.0262 88.6182 37.0262Z" fill="black"/>
<path d="M6.12152 29.8477L0.969666 35.9125L2.86095 38.3906L9.05615 32.391L12.9689 35.456L18.512 19.8702L2.86095 25.935L6.12152 29.8477Z" fill="white"/>
<path fill-rule="evenodd" clip-rule="evenodd" d="M18.8606 19.5118C19.0007 19.6481 19.0486 19.8536 18.9831 20.0378L13.44 35.6236C13.3861 35.7751 13.2626 35.8914 13.1082 35.9362C12.9537 35.981 12.7872 35.9488 12.6606 35.8496L9.09091 33.0534L3.20879 38.7498C3.1062 38.8491 2.96602 38.8999 2.8236 38.8892C2.68119 38.8785 2.55013 38.8075 2.46349 38.6939L0.5722 36.2159C0.429571 36.029 0.436396 35.768 0.588597 35.5888L5.4681 29.8446L2.47684 26.2551C2.37376 26.1314 2.33656 25.9656 2.37689 25.8097C2.41723 25.6539 2.53016 25.5269 2.68029 25.4688L18.3313 19.404C18.5136 19.3334 18.7204 19.3755 18.8606 19.5118ZM3.69071 26.1497L6.50563 29.5276C6.66129 29.7144 6.66001 29.9861 6.50259 30.1714L1.61146 35.9293L2.91717 37.6401L8.70831 32.0319C8.88774 31.8581 9.16786 31.8434 9.36448 31.9974L12.7305 34.6342L17.6753 20.7307L3.69071 26.1497Z" fill="black"/>
</svg>
